<svg width="269" height="58" viewBox="0 0 269 58" fill="none" xmlns="http://www.w3.org/2000/svg">
<path d="M70.1932 46H61.125L72.9034 11.0909H84.1364L95.9148 46H86.8466L78.6477 19.8864H78.375L70.1932 46ZM68.983 32.2614H87.9375V38.6705H68.983V32.2614ZM130.543 11.0909V46H122.224V17.8409H109.27V46H100.952V11.0909H130.543ZM135.938 17.9432V11.0909H165.443V17.9432H154.858V46H146.54V17.9432H135.938ZM169.564 46V11.0909H193.905V17.9432H178.001V25.1023H192.661V31.9716H178.001V39.1477H193.905V46H169.564ZM220.513 46L209.536 31.5114H207.626V46H199.189V11.0909H207.626V24.642H208.973L219.78 11.0909H230.331L216.882 27.5739L231.03 46H220.513ZM241.662 46H232.594L244.372 11.0909H255.605L267.384 46H258.315L250.116 19.8864H249.844L241.662 46ZM240.452 32.2614H259.406V38.6705H240.452V32.2614Z" fill="#316053"/>
<rect x="16" y="5" width="16" height="48" fill="#316053"/>
<rect y="37" width="16" height="48" transform="rotate(-90 0 37)" fill="#316053"/>
</svg>
